<?xml version="1.0" encoding="UTF-8" standalone="no"?>
<!DOCTYPE svg PUBLIC "-//W3C//DTD SVG 1.1//EN"
 "http://www.w3.org/Graphics/SVG/1.1/DTD/svg11.dtd">
<!-- Generated by graphviz version 2.47.3 (20210619.1520)
 -->
<!-- Title: dependencies Pages: 1 -->
<svg width="436pt" height="250pt"
 viewBox="0.00 0.00 436.00 249.80" xmlns="http://www.w3.org/2000/svg" xmlns:xlink="http://www.w3.org/1999/xlink">
<g id="graph0" class="graph" transform="scale(1 1) rotate(0) translate(4 245.8)">
<title>dependencies</title>
<polygon fill="white" stroke="transparent" points="-4,4 -4,-245.8 432,-245.8 432,4 -4,4"/>
<text text-anchor="middle" x="214" y="-8.2" font-family="sans-serif" font-size="14.00">dependencies</text>
<g id="clust1" class="cluster">
<title>cluster_AppModule</title>
<polygon fill="none" stroke="black" stroke-dasharray="1,5" points="8,-108.8 8,-233.8 377,-233.8 377,-108.8 8,-108.8"/>
</g>
<g id="clust3" class="cluster">
<title>cluster_AppModule_imports</title>
<polygon fill="none" stroke="black" points="154,-116.8 154,-168.8 369,-168.8 369,-116.8 154,-116.8"/>
</g>
<g id="clust6" class="cluster">
<title>cluster_AppModule_providers</title>
<polygon fill="none" stroke="black" points="16,-116.8 16,-168.8 146,-168.8 146,-116.8 16,-116.8"/>
</g>
<g id="clust7" class="cluster">
<title>cluster_PostsModule</title>
<polygon fill="none" stroke="black" stroke-dasharray="1,5" points="104,-32.8 104,-100.8 256,-100.8 256,-32.8 104,-32.8"/>
</g>
<g id="clust12" class="cluster">
<title>cluster_PostsModule_providers</title>
<polygon fill="none" stroke="black" points="112,-40.8 112,-92.8 248,-92.8 248,-40.8 112,-40.8"/>
</g>
<g id="clust13" class="cluster">
<title>cluster_UsersModule</title>
<polygon fill="none" stroke="black" stroke-dasharray="1,5" points="264,-32.8 264,-100.8 420,-100.8 420,-32.8 264,-32.8"/>
</g>
<g id="clust18" class="cluster">
<title>cluster_UsersModule_providers</title>
<polygon fill="none" stroke="black" points="272,-40.8 272,-92.8 412,-92.8 412,-40.8 272,-40.8"/>
</g>
<!-- PostsModule -->
<g id="node1" class="node">
<title>PostsModule</title>
<polygon fill="#8dd3c7" stroke="black" points="251.61,-160.8 248.61,-164.8 227.61,-164.8 224.61,-160.8 162.39,-160.8 162.39,-124.8 251.61,-124.8 251.61,-160.8"/>
<text text-anchor="middle" x="207" y="-138.6" font-family="Times,serif" font-size="14.00">PostsModule</text>
</g>
<!-- AppModule -->
<g id="node3" class="node">
<title>AppModule</title>
<polygon fill="#8dd3c7" stroke="black" points="248.66,-225.8 245.66,-229.8 224.66,-229.8 221.66,-225.8 165.34,-225.8 165.34,-189.8 248.66,-189.8 248.66,-225.8"/>
<text text-anchor="middle" x="207" y="-203.6" font-family="Times,serif" font-size="14.00">AppModule</text>
</g>
<!-- PostsModule&#45;&gt;AppModule -->
<g id="edge1" class="edge">
<title>PostsModule&#45;&gt;AppModule</title>
<path fill="none" stroke="black" d="M207,-160.91C207,-160.91 207,-179.79 207,-179.79"/>
<polygon fill="black" stroke="black" points="203.5,-179.79 207,-189.79 210.5,-179.79 203.5,-179.79"/>
</g>
<!-- UsersModule -->
<g id="node2" class="node">
<title>UsersModule</title>
<polygon fill="#8dd3c7" stroke="black" points="360.92,-160.8 357.92,-164.8 336.92,-164.8 333.92,-160.8 269.08,-160.8 269.08,-124.8 360.92,-124.8 360.92,-160.8"/>
<text text-anchor="middle" x="315" y="-138.6" font-family="Times,serif" font-size="14.00">UsersModule</text>
</g>
<!-- UsersModule&#45;&gt;AppModule -->
<g id="edge2" class="edge">
<title>UsersModule&#45;&gt;AppModule</title>
<path fill="none" stroke="black" d="M315,-160.91C315,-180.14 315,-207.8 315,-207.8 315,-207.8 258.76,-207.8 258.76,-207.8"/>
<polygon fill="black" stroke="black" points="258.76,-204.3 248.76,-207.8 258.76,-211.3 258.76,-204.3"/>
</g>
<!-- AppService -->
<g id="node4" class="node">
<title>AppService</title>
<ellipse fill="#fdb462" stroke="black" cx="81" cy="-142.8" rx="56.74" ry="18"/>
<text text-anchor="middle" x="81" y="-138.6" font-family="Times,serif" font-size="14.00">AppService</text>
</g>
<!-- AppService&#45;&gt;AppModule -->
<g id="edge3" class="edge">
<title>AppService&#45;&gt;AppModule</title>
<path fill="none" stroke="black" d="M81,-160.91C81,-180.14 81,-207.8 81,-207.8 81,-207.8 155.04,-207.8 155.04,-207.8"/>
<polygon fill="black" stroke="black" points="155.04,-211.3 165.04,-207.8 155.04,-204.3 155.04,-211.3"/>
</g>
<!-- PostsService -->
<g id="node5" class="node">
<title>PostsService</title>
<ellipse fill="#fdb462" stroke="black" cx="180" cy="-66.8" rx="60.27" ry="18"/>
<text text-anchor="middle" x="180" y="-62.6" font-family="Times,serif" font-size="14.00">PostsService</text>
</g>
<!-- PostsService&#45;&gt;PostsModule -->
<g id="edge4" class="edge">
<title>PostsService&#45;&gt;PostsModule</title>
<path fill="none" stroke="black" d="M201.41,-83.67C201.41,-83.67 201.41,-114.65 201.41,-114.65"/>
<polygon fill="black" stroke="black" points="197.91,-114.65 201.41,-124.65 204.91,-114.65 197.91,-114.65"/>
</g>
<!-- UsersService -->
<g id="node6" class="node">
<title>UsersService</title>
<ellipse fill="#fdb462" stroke="black" cx="342" cy="-66.8" rx="61.95" ry="18"/>
<text text-anchor="middle" x="342" y="-62.6" font-family="Times,serif" font-size="14.00">UsersService</text>
</g>
<!-- UsersService&#45;&gt;UsersModule -->
<g id="edge5" class="edge">
<title>UsersService&#45;&gt;UsersModule</title>
<path fill="none" stroke="black" d="M320.37,-84.05C320.37,-84.05 320.37,-114.56 320.37,-114.56"/>
<polygon fill="black" stroke="black" points="316.87,-114.56 320.37,-124.56 323.87,-114.56 316.87,-114.56"/>
</g>
</g>
</svg>
